Coordinates
version=1
nRows=29
nColumns=24
inDegrees=yes

Units are S.I. units (second, meters, Newtons, ...)
Angles are in degrees.

endheader
time	pelvis_tilt	pelvis_list	pelvis_rotation	pelvis_tx	pelvis_ty	pelvis_tz	hip_flexion_r	hip_adduction_r	hip_rotation_r	knee_angle_r	ankle_angle_r	subtalar_angle_r	mtp_angle_r	hip_flexion_l	hip_adduction_l	hip_rotation_l	knee_angle_l	ankle_angle_l	subtalar_angle_l	mtp_angle_l	lumbar_extension	lumbar_bending	lumbar_rotation
      1.20883333	     -2.06788974	      3.89133783	     -0.24540007	      0.15070267	      1.02982518	      0.30070620	     20.71141733	     -5.96549619	     -6.16862103	    -66.02305139	     -1.42017973	     -7.35286610	      5.96049803	     11.26608783	      8.14166098	      1.94144002	    -10.93005334	      3.20126373	    -10.42604792	     -2.52253925	     -4.71774427	     -6.69597214	      1.09282277
      1.21300000	     -2.07738912	      3.79643080	     -0.32997728	      0.15579239	      1.03065168	      0.30045948	     21.22275690	     -5.79810073	     -6.04473786	    -65.60402098	     -1.15507129	     -7.67439426	      5.92244560	     10.79253256	      8.04157670	      1.91327159	    -10.59609633	      3.28465053	    -10.38068823	     -2.52715281	     -4.72861548	     -6.55479536	      1.06376926
      1.21716667	     -2.06373697	      3.69385938	     -0.41202031	      0.16084239	      1.03149140	      0.30022039	     21.69311089	     -5.61719873	     -5.92537019	    -65.12040646	     -0.95753017	     -8.01863284	      5.84672626	     10.29445503	      7.93583103	      1.91420468	    -10.25867265	      3.35732723	    -10.34212299	     -2.53766591	     -4.79475256	     -6.39184959	      1.03644628
      1.22133333	     -2.07533526	      3.58872625	     -0.48524363	      0.16593119	      1.03226046	      0.29996862	     22.16830171	     -5.43955864	     -5.82497508	    -64.58433391	     -0.70024016	     -8.26378930	      5.80078712	      9.82439915	      7.82881373	      1.89759478	     -9.92616583	      3.44073391	    -10.31807188	     -2.54430892	     -4.77326934	     -6.25104701	      1.00261962
      1.22550000	     -2.07371205	      3.46997858	     -0.55057058	      0.17099707	      1.03303341	      0.29969929	     22.60732950	     -5.24617231	     -5.73485740	    -63.98194278	     -0.48502988	     -8.52163256	      5.74280783	      9.34396654	      7.71082416	      1.89969168	     -9.59974122	      3.51351176	    -10.30013679	     -2.55356997	     -4.79349470	     -6.07604396	      0.96678015
      1.22966667	     -2.05223098	      3.36859422	     -0.61553801	      0.17601627	      1.03379096	      0.29945341	     23.01472760	     -5.06236851	     -5.63450700	    -63.32953573	     -0.34402703	     -8.85762751	      5.26949293	      8.82969126	      7.61894987	      1.98931692	     -9.23963634	      3.52728725	    -10.40038693	     -2.64266569	     -4.88597566	     -5.93673693	      0.85750634
      1.23383333	     -2.04158655	      3.21450234	     -0.65525630	      0.18108191	      1.03453634	      0.29915938	     23.39050218	     -4.83660277	     -5.58149025	    -62.59265193	     -0.17149735	     -9.00366236	      5.15968165	      8.34635207	      7.46798655	      2.02367866	     -8.93186779	      3.63018095	    -10.35214013	     -2.66286644	     -4.90956366	     -5.72306696	      0.84414767
      1.23800000	     -2.04977564	      3.07935576	     -0.69544224	      0.18611343	      1.03518476	      0.29888418	     23.77873346	     -4.62473253	     -5.51768697	    -61.82314447	      0.05108167	     -9.17055332	      5.09010789	      7.89861841	      7.33697762	      2.03200836	     -8.64663222	      3.70041326	    -10.34525932	     -2.67688914	     -4.92932439	     -5.53215933	      0.80089422
      1.24216667	     -2.03384735	      2.94512085	     -0.72398776	      0.19113088	      1.03583628	      0.29859864	     24.11774780	     -4.41799208	     -5.46641185	    -60.99071508	      0.20430167	     -9.33781265	      4.99482575	      7.42067393	      7.21179889	      2.09052174	     -8.35118988	      3.77507585	    -10.35585498	     -2.69632978	     -4.98497436	     -5.35538754	      0.73791615
      1.24633333	     -2.00922964	      2.81754464	     -0.74208482	      0.19615142	      1.03645922	      0.29829886	     24.42706930	     -4.22335800	     -5.42889223	    -60.10392725	      0.30712901	     -9.52428259	      4.81836607	      6.92493399	      7.09943174	      2.19562748	     -8.03686743	      3.83927362	    -10.41987924	     -2.73493102	     -5.04895462	     -5.16757329	      0.63006134
      1.25050000	     -1.99925308	      2.66725412	     -0.74552909	      0.20114604	      1.03702348	      0.29798975	     24.72560377	     -4.00566163	     -5.40412625	    -59.15990282	      0.48130611	     -9.62479608	      4.70347395	      6.47588925	      6.96034312	      2.26066681	     -7.78407654	      3.90609546	    -10.45750474	     -2.76115213	     -5.09788239	     -4.96765510	      0.56677730
      1.25466667	     -1.97614226	      2.54274272	     -0.75010301	      0.20613315	      1.03754676	      0.29769965	     24.99778419	     -3.81179080	     -5.37131652	    -58.17295356	      0.59259034	     -9.81921580	      4.41207707	      5.99364803	      6.85359797	      2.39794544	     -7.48576160	      3.93676311	    -10.59065494	     -2.83016827	     -5.18569359	     -4.79163194	      0.41327962
      1.25883333	     -2.00658021	      2.40103281	     -0.71846432	      0.21112707	      1.03795665	      0.29734273	     25.29720622	     -3.62122144	     -5.38534033	    -57.12607760	      0.72851758	     -9.85457354	      4.31759868	      5.60756746	      6.72759758	      2.48274185	     -7.27192195	      4.03587050	    -10.60870924	     -2.85108133	     -5.16898544	     -4.58843229	      0.37003197
      1.26300000	     -1.95447216	      2.27512414	     -0.69380597	      0.21610893	      1.03844392	      0.29701400	     25.48759841	     -3.44291308	     -5.39337026	    -56.02116043	      0.77388311	    -10.01237686	      4.13751417	      5.10887087	      6.62146845	      2.62256452	     -7.00260647	      4.11237367	    -10.69066117	     -2.89206630	     -5.27268411	     -4.41330913	      0.23809831
      1.26716667	     -1.98389457	      2.13679933	     -0.64204931	      0.22107001	      1.03875994	      0.29665715	     25.74325684	     -3.25908463	     -5.42326848	    -54.86907366	      0.88805821	    -10.08918170	      4.03473066	      4.73718705	      6.49971049	      2.73139784	     -6.81299390	      4.19223593	    -10.74421008	     -2.91489753	     -5.28460236	     -4.21573399	      0.15801174
      1.27133333	     -1.92132872	      2.02333525	     -0.59524073	      0.22604131	      1.03917116	      0.29631288	     25.87732838	     -3.10045089	     -5.44876271	    -53.65587769	      0.87561715	    -10.29667333	      3.78234576	      4.23108913	      6.40983080	      2.92711015	     -6.54665326	      4.23665557	    -10.89345737	     -2.97248300	     -5.41406705	     -4.06107657	     -0.03933045
      1.27550000	     -1.92021928	      1.91635516	     -0.52301766	      0.23099881	      1.03943424	      0.29594439	     26.05989720	     -2.96308875	     -5.50920724	    -52.40393487	      0.89133931	    -10.43458906	      3.53129252	      3.82006951	      6.32527508	      3.09966656	     -6.33839645	      4.30674770	    -11.01769507	     -3.02886512	     -5.45360194	     -3.90372117	     -0.18277290
      1.27966667	     -1.91784891	      1.80735845	     -0.44701750	      0.23594871	      1.03965430	      0.29558113	     26.21803794	     -2.82173380	     -5.56932658	    -51.09681276	      0.89842339	    -10.59265574	      3.27472376	      3.41293489	      6.23609773	      3.27056203	     -6.13826546	      4.37084890	    -11.11601409	     -3.08506552	     -5.51762900	     -3.74781214	     -0.32388348
      1.28383333	     -1.91803672	      1.69956633	     -0.34836035	      0.24092710	      1.03983434	      0.29517469	     26.34976537	     -2.70080020	     -5.67735689	    -49.73110053	      0.85223956	    -10.76554627	      3.05586218	      3.01621049	      6.14912428	      3.43488378	     -5.95776761	      4.46582637	    -11.20797414	     -3.12911504	     -5.54392994	     -3.59411081	     -0.46490968
      1.28800000	     -1.92067880	      1.61966470	     -0.24563507	      0.24589333	      1.03994859	      0.29477818	     26.46973910	     -2.60686939	     -5.78015490	    -48.33261027	      0.84962836	    -10.97509872	      2.47594345	      2.61369563	      6.09378169	      3.65221936	     -5.74989205	      4.42917743	    -11.42688064	     -3.25501646	     -5.58888534	     -3.46113153	     -0.70664398
      1.29216667	     -1.94068593	      1.52964235	     -0.12461909	      0.25084612	      1.03999458	      0.29435405	     26.58643908	     -2.51948095	     -5.92527410	    -46.88346122	      0.78428506	    -11.06852700	      2.36619400	      2.26142313	      6.02255066	      3.81523922	     -5.61812532	      4.61406386	    -11.41929871	     -3.27059090	     -5.62190452	     -3.32589369	     -0.74334002
      1.29633333	     -1.92104361	      1.46753816	     -0.01736691	      0.25582951	      1.04005164	      0.29397941	     26.63708392	     -2.44933126	     -6.06011486	    -45.37237708	      0.59656795	    -11.39024317	      2.15605196	      1.84518646	      5.97877035	      3.97560219	     -5.43766370	      4.71236693	    -11.49420089	     -3.30641985	     -5.67667898	     -3.23869120	     -0.94192866
      1.30050000	     -1.92432522	      1.41838662	      0.10472388	      0.26080534	      1.04001664	      0.29359016	     26.69568224	     -2.40091991	     -6.21595686	    -43.83165288	      0.45355128	    -11.63207633	      1.91838832	      1.46078553	      5.94885326	      4.16500414	     -5.27194972	      4.79724264	    -11.57916695	     -3.34642122	     -5.71578140	     -3.15308166	     -1.12796989
      1.30466667	     -1.92747143	      1.37122905	      0.24101528	      0.26580428	      1.03996402	      0.29317828	     26.72979658	     -2.36708329	     -6.41334445	    -42.25342102	      0.39752880	    -11.76656753	     -0.65425962	      1.05388092	      5.92484207	      4.45876344	     -5.06057072	      4.78548186	    -11.83720275	     -3.83445689	     -5.75639747	     -3.06909982	     -1.23495723
      1.30883333	     -1.95710668	      1.34736337	      0.37796899	      0.27079962	      1.03979213	      0.29279524	     26.77779097	     -2.35550434	     -6.62409293	    -40.63022068	      0.19017794	    -12.05747769	     -0.71735770	      0.72036963	      5.91485749	      4.57358247	     -4.94612686	      4.95908418	    -11.79299169	     -3.83964534	     -5.75823430	     -3.01826215	     -1.45221731
      1.31300000	     -1.99517462	      1.32251763	      0.52393004	      0.27582541	      1.03958773	      0.29241227	     26.80723558	     -2.34781586	     -6.86550702	    -38.95896522	     -0.02350934	    -12.30162184	     -0.80446600	      0.38399656	      5.90316675	      4.73769710	     -4.80922455	      5.08058518	    -11.80841863	     -3.84946676	     -5.75707041	     -2.96860770	     -1.64015867
      1.31716667	     -2.00781386	      1.30554437	      0.67272106	      0.28087329	      1.03938131	      0.29203346	     26.78739183	     -2.35364614	     -7.14473642	    -37.24925889	     -0.23943519	    -12.51622829	     -0.90523051	      0.01538817	      5.89761206	      4.90509933	     -4.66559230	      5.20007341	    -11.84491262	     -3.86108226	     -5.77216390	     -2.92639088	     -1.81424356
      1.32133333	     -2.05876498	      1.28636430	      0.83833698	      0.28592074	      1.03906776	      0.29164900	     26.79125506	     -2.36703407	     -7.47342790	    -35.51194793	     -0.43419455	    -12.65219991	     -0.99221538	     -0.29925911	      5.88750736	      5.07801227	     -4.54940922	      5.32611038	    -11.86449230	     -3.87016961	     -5.76878173	     -2.88744459	     -1.94463448
      1.32550000	     -2.07161348	      1.30583032	      0.97825086	      0.29100915	      1.03877464	      0.29132916	     26.73738480	     -2.39861633	     -7.77106268	    -33.73843391	     -0.70217544	    -12.87691708	     -1.13093283	     -0.68019799	      5.91590683	      5.24876563	     -4.38510374	      5.43455750	    -11.91116610	     -3.89011801	     -5.76331225	     -2.89474982	     -2.16881116
